<svg width="1034" height="224" viewBox="0 0 1034 224" fill="none" xmlns="http://www.w3.org/2000/svg">
<path d="M749.425 69.3183C749.376 56.5479 746.489 45.4301 740.764 35.9703C735.034 26.5106 727.059 19.2195 716.834 14.1026C706.609 8.98012 694.622 6.4491 680.884 6.49851L618.903 6.7291H617.552C615.126 6.74558 613.167 8.71659 613.172 11.1433L613.924 213.317C613.935 216.321 616.109 219.049 619.095 219.34C622.53 219.67 625.417 216.968 625.406 213.603L625.11 133.582L681.346 133.373C695.083 133.324 707.048 130.65 717.241 125.352C727.427 120.06 735.347 112.664 741.006 103.16C746.659 93.6622 749.469 82.4785 749.42 69.6093V69.3128L749.425 69.3183ZM737.647 69.8015C737.707 86.1076 732.526 98.9988 722.114 108.464C711.697 117.935 697.46 122.7 679.403 122.772L625.077 122.975L624.682 17.3199L679.002 17.1167C697.059 17.0508 711.335 21.6627 721.818 30.9577C732.306 40.2528 737.581 53.1 737.641 69.505V69.8015H737.647Z" fill="#171717" stroke="#171717" stroke-width="8.83" stroke-miterlimit="10"/>
<path d="M798.69 213.032L797.944 11.879C797.933 8.70558 800.49 6.12515 803.663 6.11417C806.835 6.10319 809.415 8.66166 809.426 11.835L810.178 212.988C810.189 216.161 807.631 218.742 804.459 218.753C801.286 218.764 798.707 216.205 798.696 213.032H798.69Z" fill="#171717" stroke="#171717" stroke-width="8.83" stroke-miterlimit="10"/>
<path d="M869.646 212.84L868.905 13.8007C868.888 9.46334 872.39 5.9276 876.732 5.91113C879.284 5.90015 881.682 7.13546 883.164 9.21628L1017.84 198.576L1017.14 11.1324C1017.13 7.959 1019.7 5.37857 1022.86 5.36759C1026.04 5.35661 1028.62 7.92057 1028.63 11.0885L1029.37 210.128C1029.38 214.465 1025.88 218.001 1021.54 218.017C1018.99 218.028 1016.59 216.793 1015.11 214.712L880.431 25.3522L881.128 212.796C881.139 215.969 878.576 218.55 875.409 218.561C872.236 218.572 869.657 216.008 869.646 212.84Z" fill="#171717" stroke="#171717" stroke-width="8.83" stroke-miterlimit="10"/>
<path d="M15.8287 219.357C10.4774 219.379 6.12501 215.052 6.10305 209.705L5.36759 15.7661C5.35661 12.6971 7.88682 10.1935 11.0153 10.1825C14.2261 10.1715 16.8386 12.7136 16.8496 15.8595L17.5796 208.909L123.354 208.524C126.565 208.513 129.178 211.055 129.189 214.207C129.2 216.82 127.043 218.95 124.375 218.961L15.8177 219.357H15.8287Z" fill="#171717" stroke="#171717" stroke-width="8.83" stroke-miterlimit="10"/>
<path d="M565.346 100.838C564.133 88.9736 561.158 77.5867 556.191 66.7489C548.084 49.0483 535.938 34.4386 519.763 23.2933C501.097 10.4296 480.29 4.64285 457.408 6.49308C445.218 7.47584 433.659 10.6657 422.677 15.8595L428.604 27.9162C442.304 21.3717 456.876 18.4839 472.518 19.8674C482.677 20.7678 492.293 23.502 501.377 27.9436C511.015 32.6543 519.467 38.9242 526.728 46.7863C532.195 52.6993 536.866 59.1174 540.609 66.1724C547.151 78.4926 550.757 91.6034 551.739 105.472C552.579 117.408 551.498 129.108 547.859 140.511C540.356 163.987 526.267 182.49 504.05 194.398C485.378 204.407 465.52 206.866 444.911 201.448C425.657 196.385 410.124 186.091 397.495 171.877C395.053 169.132 392.72 166.238 390.492 163.208C380.876 150.146 374.114 135.894 367.973 121.103C363.785 111.006 353.587 85.4269 353.587 85.4269C351.995 81.375 348.51 72.8926 344.553 65.9419C337.402 53.3856 328.817 42.0427 318.011 32.5884C315.222 30.1507 312.286 27.8338 309.185 25.6597C289.476 11.8296 267.675 4.74717 243.257 6.39425C223.026 7.76133 205.243 15.2116 189.535 27.5758C179.25 35.6684 170.995 45.496 164.376 56.6633C157.844 67.6768 153.547 79.4809 151.329 92.0097C149.507 102.309 149.09 112.653 150.16 123.096C151.373 134.96 154.348 146.347 159.315 157.185C167.422 174.886 179.568 189.495 195.743 200.64C214.409 213.504 235.216 219.291 258.098 217.441C270.376 216.452 282.011 213.224 293.065 207.964C293.834 207.602 294.591 207.223 295.343 206.844L295.376 206.905C307.083 200.986 317.286 193.135 325.898 183.247C331.337 177.005 336.002 170.285 339.454 162.801C341.474 158.42 342.572 153.83 342.621 148.966C342.714 140.385 340.096 132.435 336.803 124.688C328.614 105.428 317.588 87.8481 303.713 72.0141C294.756 61.7967 284.673 52.9409 271.907 47.4506C260.376 42.4929 248.476 41.3619 236.297 44.5847C227.077 47.0223 218.981 51.6397 211.873 57.8547C205.688 63.2626 200.71 69.6807 196.692 76.7632C191.242 86.3657 188.448 96.7478 187.663 107.602C187.351 111.896 187.51 116.211 188.092 120.471C188.981 126.977 190.529 133.352 193.048 139.484C198.361 152.425 206.5 163.191 218.224 171.174C226.286 176.664 235.183 180.392 245.019 181.265C257.302 182.352 268.647 179.212 279.201 173.052C287.269 168.341 294.179 162.335 300.343 155.439C302.127 150.047 297.939 143.113 291.386 145.952L271.287 162.434C263.015 167.929 253.416 169.736 243.471 167.902C231.621 165.717 222.236 159.332 214.749 150.377C209.672 144.31 205.973 137.195 203.717 129.613C200.94 120.285 200.057 110.797 201.84 101.244C204.316 87.9524 210.611 76.6205 220.913 67.5066C225.007 63.8885 229.519 60.9512 234.59 58.8374C246.363 53.9346 257.812 54.7911 269.014 60.6273C276.622 64.5912 282.752 70.3231 288.823 76.1648C301.342 88.2159 310.376 102.776 319.24 117.364C322.884 123.365 325.162 130.233 327.506 136.898C330.398 145.117 329.767 153.254 325.343 160.973C321.825 167.117 317.593 172.739 312.621 177.806C307.165 183.368 301.084 188.177 294.306 192.152C292.708 193.091 291.095 193.975 289.476 194.81L289.448 194.749C275.008 202.183 259.607 205.532 242.999 204.061C232.84 203.16 223.224 200.426 214.14 195.985C204.502 191.274 196.05 185.004 188.789 177.142C183.322 171.229 178.651 164.811 174.908 157.756C168.366 145.436 164.76 132.325 163.777 118.451C162.938 106.515 164.019 94.8152 167.663 83.4119C175.166 59.9355 189.255 41.4332 211.473 29.5248C230.145 19.516 250.002 17.0564 270.612 22.4753C289.865 27.5373 305.398 37.8316 318.027 52.046C320.469 54.7911 322.802 57.6845 325.03 60.7151C334.646 73.7765 340.782 89.3414 347.171 104.033C350.601 111.928 361.935 138.496 361.935 138.496C363.527 142.548 367.012 151.03 370.969 157.981C378.121 170.537 386.705 181.88 397.512 191.334C400.3 193.772 403.236 196.089 406.337 198.263C426.047 212.093 447.847 219.176 472.266 217.529C492.496 216.161 510.279 208.711 525.987 196.347C536.273 188.254 544.527 178.427 551.147 167.26C557.678 156.246 561.976 144.442 564.193 131.913C566.015 121.613 566.432 111.27 565.362 100.827L565.346 100.838Z" fill="#171717" stroke="#171717" stroke-width="4.48" stroke-miterlimit="10"/>
<path d="M411.804 152.073C420.761 162.291 430.844 171.147 443.61 176.637C455.136 181.595 467.041 182.726 479.22 179.503C488.44 177.065 496.536 172.448 503.643 166.233C509.829 160.825 514.807 154.407 518.825 147.324C524.61 137.134 527.398 126.077 527.974 114.509C528.177 110.408 527.837 106.219 527.217 102.145C526.3 96.1494 524.802 90.2693 522.475 84.5979C517.162 71.6573 509.022 60.8963 497.299 52.908C489.236 47.4177 480.339 43.6898 470.504 42.8168C458.22 41.7297 446.876 44.8702 436.321 51.0303C428.253 55.7409 420.673 63.3285 414.51 70.2243C412.331 75.3632 416.409 80.9688 421.969 80.4747C421.969 80.4747 432.831 68.149 444.241 61.643C452.869 56.7237 462.112 54.3409 472.057 56.1747C484.11 58.3982 493.605 64.9646 501.157 74.1553C506.069 80.1343 509.577 86.9752 511.794 94.409C514.588 103.759 515.477 113.263 513.687 122.832C511.212 136.124 504.917 147.456 494.615 156.57C490.52 160.194 486.009 163.125 480.937 165.239C469.165 170.142 457.715 169.285 446.513 163.449C438.906 159.485 432.776 153.753 426.705 147.912C414.186 135.861 405.152 121.3 396.288 106.713C392.644 100.712 390.366 93.8435 388.022 87.1783C385.13 78.9593 385.761 70.8227 390.185 63.1034C393.703 56.9598 397.934 51.3377 402.907 46.2702C408.363 40.7086 414.444 35.8991 421.222 31.9241C423.659 30.4966 426.124 29.179 428.621 27.9876L422.693 15.9309C409.916 21.9757 398.862 30.2386 389.63 40.8348C384.191 47.0773 379.526 53.7974 376.074 61.2861C374.054 65.6674 372.956 70.2572 372.907 75.1161C372.813 83.6975 375.431 91.6474 378.725 99.3942C386.913 118.654 397.945 136.234 411.82 152.068L411.804 152.073Z" fill="#171717" stroke="#171717" stroke-width="4.48" stroke-miterlimit="10"/>
</svg>
